<svg width="64" height="64" viewBox="0 0 64 64" fill="none" xmlns="http://www.w3.org/2000/svg">
  <rect width="64" height="64" rx="12" fill="url(#gradient)"/>
  <path d="M16 32C16 32 20 28 24 32C28 36 32 28 36 32C40 36 44 28 48 32" stroke="white" stroke-width="3" stroke-linecap="round" stroke-linejoin="round"/>
  <path d="M16 24C16 24 20 20 24 24C28 28 32 20 36 24C40 28 44 20 48 24" stroke="white" stroke-width="3" stroke-linecap="round" stroke-linejoin="round"/>
  <path d="M16 40C16 40 20 36 24 40C28 44 32 36 36 40C40 44 44 36 48 40" stroke="white" stroke-width="3" stroke-linecap="round" stroke-linejoin="round"/>
  <defs>
    <linearGradient id="gradient" x1="0%" y1="0%" x2="100%" y2="100%">
      <stop offset="0%" style="stop-color:#3B82F6;stop-opacity:1" />
      <stop offset="100%" style="stop-color:#1D4ED8;stop-opacity:1" />
    </linearGradient>
  </defs>
</svg>
